<svg width="24" height="24" viewBox="0 0 24 24" fill="none" xmlns="http://www.w3.org/2000/svg">
<path d="M3.687 11.273C3.59153 11.1828 3.47923 11.1123 3.3565 11.0655C3.23377 11.0186 3.10302 10.9965 2.97172 11.0002C2.84042 11.0039 2.71113 11.0334 2.59125 11.0871C2.47136 11.1408 2.36322 11.2176 2.273 11.313C2.18279 11.4085 2.11226 11.5208 2.06544 11.6435C2.01863 11.7663 1.99644 11.897 2.00016 12.0283C2.00387 12.1596 2.03341 12.2889 2.08709 12.4088C2.14077 12.5287 2.21753 12.6368 2.313 12.727L11.313 21.227C11.4987 21.4026 11.7445 21.5004 12 21.5004C12.2555 21.5004 12.5013 21.4026 12.687 21.227L21.688 12.727C21.7856 12.6374 21.8643 12.5293 21.9198 12.409C21.9752 12.2886 22.0062 12.1585 22.0109 12.0261C22.0156 11.8937 21.9939 11.7617 21.9472 11.6377C21.9004 11.5138 21.8295 11.4003 21.7386 11.304C21.6476 11.2077 21.5384 11.1304 21.4173 11.0767C21.2963 11.0229 21.1657 10.9937 21.0333 10.9908C20.9008 10.9879 20.7691 11.0114 20.6458 11.0598C20.5225 11.1083 20.4101 11.1808 20.315 11.273L12 19.125L3.687 11.273Z" fill="black"/>
</svg>
