<svg width="16" height="16" viewBox="0 0 16 16" fill="none" xmlns="http://www.w3.org/2000/svg">
<path d="M13.7907 6.62791L8.73255 11.686C8.61627 11.8023 8.49999 11.8837 8.38372 11.9302C8.26744 11.9767 8.13953 12 8 12C7.86046 12 7.73255 11.9767 7.61628 11.9302C7.5 11.8837 7.38372 11.8023 7.26744 11.686L2.2093 6.62791C2.13953 6.55815 2.08744 6.48233 2.05302 6.40047C2.0186 6.31861 2.00093 6.23163 2 6.13954C2 5.95349 2.06419 5.7907 2.19256 5.65117C2.32093 5.51163 2.4893 5.44187 2.69767 5.44187L13.3023 5.44187C13.5116 5.44187 13.6805 5.51163 13.8088 5.65117C13.9372 5.7907 14.0009 5.95349 14 6.13954C14 6.18605 13.9302 6.34884 13.7907 6.62791Z" fill="black"/>
</svg>
