<svg width="24" height="24" viewBox="0 0 24 24" fill="none" xmlns="http://www.w3.org/2000/svg">
<path d="M20.313 12.727C20.4085 12.8172 20.5208 12.8877 20.6435 12.9345C20.7662 12.9814 20.897 13.0035 21.0283 12.9998C21.1596 12.9961 21.2889 12.9666 21.4088 12.9129C21.5286 12.8592 21.6368 12.7824 21.727 12.687C21.8172 12.5915 21.8877 12.4792 21.9346 12.3565C21.9814 12.2337 22.0036 12.103 21.9998 11.9717C21.9961 11.8404 21.9666 11.7111 21.9129 11.5912C21.8592 11.4713 21.7825 11.3632 21.687 11.273L12.687 2.77298C12.5013 2.59744 12.2555 2.49963 12 2.49963C11.7445 2.49963 11.4987 2.59744 11.313 2.77298L2.31199 11.273C2.21443 11.3626 2.13565 11.4707 2.08023 11.591C2.0248 11.7114 1.99384 11.8415 1.98914 11.9739C1.98443 12.1063 2.00608 12.2383 2.05283 12.3623C2.09957 12.4862 2.17048 12.5997 2.26144 12.696C2.35239 12.7923 2.46158 12.8696 2.58265 12.9233C2.70373 12.9771 2.83428 13.0063 2.96673 13.0092C3.09918 13.0121 3.23088 12.9886 3.35418 12.9402C3.47748 12.8917 3.58993 12.8192 3.68499 12.727L12 4.87498L20.313 12.727Z" fill="black"/>
</svg>
