<svg width="16" height="16" viewBox="0 0 16 16" fill="none" xmlns="http://www.w3.org/2000/svg">
<path d="M2.20931 9.37212L7.26745 4.31398C7.38373 4.1977 7.50001 4.11631 7.61628 4.0698C7.73256 4.02329 7.86047 4.00003 8 4.00003C8.13954 4.00003 8.26745 4.02329 8.38372 4.0698C8.5 4.11631 8.61628 4.1977 8.73256 4.31398L13.7907 9.37212C13.8605 9.44189 13.9126 9.5177 13.947 9.59956C13.9814 9.68142 13.9991 9.7684 14 9.86049C14 10.0465 13.9358 10.2093 13.8074 10.3489C13.6791 10.4884 13.5107 10.5582 13.3023 10.5582H2.69768C2.48838 10.5582 2.31954 10.4884 2.19117 10.3489C2.0628 10.2093 1.99908 10.0465 2.00001 9.86049C2.00001 9.81398 2.06978 9.65119 2.20931 9.37212Z" fill="black"/>
</svg>
